<?xml version="1.0" standalone="no"?>
<!DOCTYPE svg PUBLIC "-//W3C//DTD SVG 20010904//EN"
 "http://www.w3.org/TR/2001/REC-SVG-20010904/DTD/svg10.dtd">
<svg version="1.0" xmlns="http://www.w3.org/2000/svg"
 width="315.000000pt" height="472.000000pt" viewBox="0 0 315.000000 472.000000"
 preserveAspectRatio="xMidYMid meet">

<g transform="translate(0.000000,472.000000) scale(0.100000,-0.100000)"
fill="#000000" stroke="none">
<path d="M0 4440 c0 -172 4 -280 10 -280 18 0 100 55 100 67 0 7 5 13 10 13 6
0 10 -5 10 -11 0 -8 5 -8 15 1 8 7 15 21 15 32 0 16 5 19 22 14 17 -4 29 2 46
21 18 22 25 25 32 13 7 -11 12 -11 34 4 14 9 26 23 26 30 0 15 68 33 104 28
11 -1 29 7 41 18 11 11 39 21 61 23 23 2 46 7 52 11 5 3 17 3 25 0 10 -3 17 1
19 12 3 15 17 18 98 21 52 2 97 8 98 13 2 6 11 10 19 10 12 0 13 -3 4 -14 -7
-8 -8 -17 -3 -20 5 -3 17 5 27 17 18 21 18 21 26 2 6 -17 8 -15 14 12 4 18 12
30 17 27 5 -3 7 -12 4 -19 -3 -8 1 -19 9 -25 10 -8 14 -7 18 7 4 16 5 16 6 1
1 -22 43 -33 69 -19 12 6 37 11 56 11 20 0 36 5 36 10 0 6 -10 10 -22 10 -28
0 -13 16 25 25 20 6 27 4 27 -8 0 -8 -4 -17 -10 -19 -6 -2 -6 -9 0 -18 8 -13
11 -12 24 5 14 17 17 18 26 5 8 -12 10 -12 10 -1 0 9 8 12 25 9 19 -4 25 -1
25 13 0 11 7 19 15 19 11 0 15 -11 15 -40 0 -35 3 -40 23 -40 31 0 59 31 51
56 -5 16 -4 16 5 4 6 -8 8 -23 5 -33 -5 -16 -3 -17 14 -6 17 10 24 10 38 -2
13 -11 18 -11 21 -1 7 19 31 14 44 -10 11 -21 12 -21 25 -3 12 17 14 17 14 2
0 -15 12 -17 85 -17 76 0 86 -2 83 -17 -3 -15 4 -18 41 -15 34 2 49 -2 67 -19
13 -12 30 -19 38 -16 17 7 41 -17 32 -32 -4 -6 4 -7 21 -2 41 10 67 3 78 -22
6 -13 23 -24 42 -28 18 -4 39 -11 46 -17 7 -6 24 -8 37 -5 17 4 21 3 16 -6 -5
-8 0 -14 13 -18 12 -3 21 -9 21 -13 0 -5 8 -11 19 -15 10 -3 29 -15 42 -26 12
-11 28 -17 35 -15 8 3 11 0 8 -8 -3 -8 5 -16 20 -20 14 -3 26 -11 26 -16 0 -6
12 -10 26 -10 26 0 54 -20 54 -39 0 -6 4 -11 8 -11 5 0 23 -12 40 -27 17 -16
54 -46 81 -68 27 -22 57 -56 67 -75 20 -37 37 -61 67 -92 9 -10 17 -24 17 -30
0 -7 9 -24 20 -38 11 -14 20 -34 20 -45 0 -11 7 -31 16 -43 8 -12 10 -22 5
-22 -6 0 -2 -15 9 -32 11 -18 20 -44 20 -58 0 -37 14 -53 39 -45 11 3 21 10
21 15 0 21 30 -4 39 -33 12 -35 12 -184 1 -152 -6 17 -7 16 -12 -7 -3 -16 -1
-25 4 -22 5 3 9 0 7 -7 -1 -8 -1 -21 0 -29 1 -13 3 -13 12 0 9 13 10 12 5 -2
-3 -10 8 -47 24 -84 41 -90 86 -240 106 -354 27 -146 25 -404 -4 -543 -39
-185 -93 -337 -162 -449 -34 -54 -41 -81 -9 -30 12 17 26 32 31 32 6 0 4 -7
-3 -17 -8 -9 -10 -18 -4 -20 6 -1 9 -26 9 -54 -1 -29 5 -79 12 -113 22 -92 22
-91 25 -251 4 -223 0 -393 -12 -460 -5 -33 -16 -160 -23 -283 -13 -216 -14
-224 -39 -250 -33 -36 -54 -79 -62 -127 -3 -22 -10 -49 -15 -60 -4 -11 -13
-45 -19 -75 -6 -30 -13 -65 -17 -77 l-6 -23 231 0 231 0 0 2360 0 2360 -1575
0 -1575 0 0 -280z m1745 -30 c3 -5 -1 -10 -9 -10 -9 0 -16 5 -16 10 0 6 4 10
9 10 6 0 13 -4 16 -10z"/>
<path d="M1625 4390 c3 -5 10 -10 16 -10 5 0 9 5 9 10 0 6 -7 10 -16 10 -8 0
-12 -4 -9 -10z"/>
<path d="M1354 4089 c-3 -6 -17 -8 -31 -4 -16 4 -32 -1 -50 -15 -14 -11 -30
-20 -36 -20 -6 0 -18 -6 -26 -14 -25 -21 -182 -46 -228 -35 -53 12 -76 11 -67
-2 5 -9 -1 -10 -22 -5 -72 16 -107 19 -100 8 9 -16 -28 -16 -53 0 -11 6 -26 8
-37 3 -19 -8 -42 -8 -81 1 -16 3 -23 0 -23 -12 0 -11 -8 -15 -29 -12 -16 1
-36 -4 -45 -11 -10 -9 -16 -10 -16 -2 0 6 -4 11 -10 11 -5 0 -10 -6 -10 -14 0
-9 -7 -12 -19 -9 -10 3 -29 -1 -42 -8 -15 -8 -24 -8 -27 -1 -1 5 -13 0 -26
-13 -12 -12 -42 -26 -65 -30 -23 -4 -45 -13 -47 -20 -3 -7 -23 -21 -44 -31
-22 -11 -40 -24 -40 -31 0 -6 -10 -13 -22 -15 -13 -2 -29 -18 -40 -40 -11 -20
-30 -44 -44 -52 -13 -9 -24 -23 -24 -30 0 -7 -7 -19 -15 -26 -9 -7 -14 -19
-11 -27 3 -8 -1 -16 -9 -20 -13 -4 -15 -27 -14 -124 l1 -119 29 0 c16 0 61 9
101 19 80 21 274 38 264 23 -3 -5 -27 -17 -53 -27 -26 -10 -52 -22 -58 -28 -7
-7 -6 -8 3 -3 7 4 26 5 42 1 47 -10 39 -39 -18 -63 -46 -20 -47 -20 -14 -21
44 -1 40 -14 -13 -48 -49 -30 -56 -43 -25 -43 28 0 25 -14 -9 -43 l-29 -24 27
-10 26 -9 -39 -37 c-36 -34 -38 -37 -17 -37 13 0 21 -5 19 -12 -9 -26 -59 -50
-144 -72 l-89 -22 -3 -47 -3 -47 95 6 96 7 0 -25 c0 -14 -7 -31 -15 -38 -20
-17 -19 -27 5 -33 23 -6 26 -36 9 -70 -9 -16 -9 -22 0 -25 14 -5 15 -57 1 -82
-7 -13 -6 -19 5 -24 18 -6 20 -62 3 -72 -8 -5 -6 -11 5 -19 19 -14 24 -48 13
-82 -6 -18 -4 -23 10 -23 14 0 16 -7 12 -44 -4 -33 -2 -46 9 -50 10 -4 14 -18
12 -46 -2 -29 2 -43 15 -53 16 -11 18 -22 12 -55 -5 -37 -4 -42 13 -42 11 0
21 -9 25 -22 14 -52 9 -57 -96 -109 -57 -27 -130 -64 -163 -83 -59 -32 -60
-34 -63 -81 l-3 -48 53 7 c29 4 71 13 93 21 22 7 83 20 135 29 52 9 105 19
117 23 34 8 28 -13 -7 -27 -48 -20 -31 -35 34 -32 63 4 86 -7 86 -43 0 -16 8
-25 25 -29 14 -4 34 -20 43 -36 10 -16 30 -39 45 -50 14 -11 28 -29 32 -39 3
-11 17 -22 30 -25 13 -3 27 -15 30 -27 4 -11 19 -25 35 -30 15 -6 33 -21 40
-34 7 -14 21 -25 31 -25 10 0 25 -8 35 -17 17 -18 55 -41 104 -64 14 -6 32
-15 40 -20 8 -5 26 -14 40 -20 14 -6 41 -19 60 -29 20 -10 58 -21 85 -26 57
-8 126 -35 108 -41 -7 -3 -13 -9 -13 -14 0 -6 5 -7 11 -4 16 11 109 13 109 3
0 -12 -58 -68 -70 -68 -13 0 -13 -67 0 -75 11 -7 85 25 142 61 46 29 48 29 41
4 -4 -16 -2 -19 11 -14 12 5 18 -1 22 -24 5 -27 9 -30 28 -22 13 4 29 4 40 -2
12 -7 24 -5 42 7 15 10 35 14 49 11 18 -5 31 3 61 37 60 67 73 85 67 91 -4 3
10 6 30 6 20 0 37 3 37 8 0 4 -51 7 -113 8 -168 1 -315 33 -482 104 -118 50
-325 190 -325 220 0 6 -4 9 -10 5 -9 -6 -170 151 -170 167 0 5 -10 19 -22 31
-50 48 -155 222 -202 334 -39 93 -89 289 -104 413 -4 30 -7 118 -6 195 2 230
57 450 164 650 44 80 55 96 65 87 5 -4 5 -2 1 5 -4 7 1 20 11 30 10 10 24 30
32 45 32 62 240 256 261 243 6 -4 10 -3 9 2 -3 18 1 33 10 33 5 0 38 18 74 39
109 67 257 129 257 109 0 -7 5 -5 13 4 16 21 172 55 262 57 28 1 36 4 26 10
-8 5 -20 7 -27 4 -8 -3 -20 2 -29 10 -8 9 -25 14 -36 12 -12 -3 -19 -1 -15 2
7 8 -60 43 -81 43 -7 0 -13 8 -13 18 0 12 -2 14 -8 4 -7 -10 -17 -7 -45 12
-23 16 -39 21 -43 15z m-247 -275 c-3 -3 -12 -4 -19 -1 -8 3 -5 6 6 6 11 1 17
-2 13 -5z m-72 -34 c-3 -5 -14 -10 -23 -10 -15 0 -15 2 -2 10 20 13 33 13 25
0z m-75 -40 c-20 -13 -33 -13 -25 0 3 6 14 10 23 10 15 0 15 -2 2 -10z m-320
-27 c-40 -7 -48 -23 -12 -23 18 0 32 -4 32 -10 0 -10 -51 -25 -122 -35 -27 -4
-48 -11 -48 -16 0 -5 21 -9 48 -10 l47 0 -40 -18 c-38 -17 -39 -18 -16 -25 13
-5 19 -12 14 -17 -13 -13 -122 -49 -152 -50 -14 -1 -2 -6 28 -11 48 -9 52 -12
38 -25 -22 -22 -278 -63 -358 -56 -74 6 -83 10 -43 18 16 3 57 13 92 22 63 16
63 16 35 28 -15 7 -36 16 -46 19 -10 3 -15 10 -12 16 4 6 10 8 14 6 4 -3 38 2
76 11 61 14 67 17 51 29 -20 14 -18 15 119 47 l60 15 -45 2 c-25 1 -54 5 -65
9 -17 7 -14 10 20 19 22 6 59 14 82 18 32 5 40 10 36 22 -4 8 -2 13 3 10 5 -3
18 -2 29 3 11 4 52 7 90 7 39 0 59 -3 45 -5z m290 -19 c0 -2 -7 -4 -15 -4 -8
0 -15 4 -15 10 0 5 7 7 15 4 8 -4 15 -8 15 -10z m-40 -4 c0 -5 -4 -10 -10 -10
-5 0 -10 5 -10 10 0 6 5 10 10 10 6 0 10 -4 10 -10z m-5 -40 c-3 -5 -11 -10
-16 -10 -6 0 -7 5 -4 10 3 6 11 10 16 10 6 0 7 -4 4 -10z m-60 -15 c-40 -19
-61 -19 -47 -2 6 7 26 13 44 14 l33 2 -30 -14z m-1 -43 c-20 -19 -112 -47
-122 -38 -13 13 24 37 50 34 15 -3 28 -1 28 3 0 8 22 16 49 18 11 1 9 -4 -5
-17z m-68 -71 c-16 -17 -59 -32 -109 -37 -17 -1 -17 0 -1 17 10 11 29 19 43
20 14 0 35 4 46 9 33 14 39 11 21 -9z m-55 -70 c-6 -10 -23 -21 -39 -24 -17
-3 -42 -9 -57 -13 -26 -6 -26 -5 -15 16 9 17 19 21 45 18 19 -2 32 -1 29 3 -4
8 13 17 34 18 9 1 10 -4 3 -18z m-41 -61 c0 -22 -40 -47 -85 -53 -27 -4 -51
-5 -53 -2 -11 11 33 46 53 43 12 -3 27 1 33 9 15 15 52 18 52 3z m-50 -76 c0
-11 -23 -49 -34 -56 -6 -4 -33 -8 -60 -8 -48 0 -48 0 -33 23 10 15 25 22 45
22 17 0 28 3 26 7 -2 3 2 9 8 11 18 7 48 8 48 1z m-40 -91 c-1 -21 -31 -43
-70 -52 -44 -10 -60 -7 -60 9 0 5 7 7 16 3 11 -4 15 -1 12 13 -2 16 5 20 42
25 25 3 48 7 53 7 4 1 7 -1 7 -5z m-44 -102 c-15 -28 -47 -41 -102 -41 -26 0
-30 11 -13 41 6 12 17 18 27 15 9 -3 24 -1 32 4 8 5 27 10 43 10 27 0 27 0 13
-29z m-31 -80 c-3 -12 -14 -21 -23 -22 -31 -1 -57 -6 -79 -13 -24 -8 -31 7
-15 30 6 10 111 34 120 28 2 -1 1 -12 -3 -23z m-75 -122 c0 -22 -22 -34 -46
-25 -14 5 -14 7 0 22 9 8 14 19 11 24 -3 4 4 6 15 3 11 -3 20 -14 20 -24z m34
-76 c-9 -37 -20 -43 -78 -43 -45 0 -48 1 -42 23 3 12 6 25 6 29 0 8 23 13 78
16 42 3 43 3 36 -25z m-4 -85 c0 -38 -15 -49 -73 -55 -53 -5 -57 -4 -57 16 0
11 5 21 11 21 6 0 9 7 6 14 -5 11 4 16 36 19 23 2 50 4 60 5 12 1 17 -5 17
-20z m-12 -143 c-2 -2 -31 -7 -66 -11 l-62 -7 0 36 c0 33 3 37 33 41 87 15 92
14 95 -23 2 -18 2 -34 0 -36z m8 -59 c3 -19 3 -39 -1 -45 -3 -6 -32 -11 -65
-11 -60 0 -70 7 -70 50 0 14 11 21 43 28 77 18 85 16 93 -22z m8 -108 c8 -40
-4 -48 -70 -48 -45 0 -52 3 -58 23 -14 53 -10 57 58 57 63 0 64 0 70 -32z m18
-99 c6 -37 -2 -41 -73 -37 -48 3 -53 6 -60 30 -4 15 -4 29 -1 32 3 3 33 6 68
6 61 0 62 0 66 -31z m19 -91 c8 -31 5 -33 -72 -43 -45 -7 -47 -6 -58 26 -6 17
-11 33 -11 35 0 7 40 12 84 11 45 -2 50 -5 57 -29z m19 -75 c0 -10 3 -28 6
-40 6 -22 4 -23 -60 -23 -46 0 -66 4 -66 13 0 6 -3 22 -6 34 -6 23 8 28 89 32
29 1 37 -3 37 -16z m30 -100 c0 -18 -25 -45 -34 -36 -3 4 -6 -1 -6 -11 0 -10
-7 -17 -17 -15 -10 1 -21 1 -25 0 -15 -2 -18 -1 -19 7 -1 4 -8 16 -15 27 -26
37 -18 44 51 44 51 -1 65 -4 65 -16z m-3 -129 c-3 -3 -12 -4 -19 -1 -8 3 -5 6
6 6 11 1 17 -2 13 -5z m30 -50 c3 -9 15 -20 27 -24 18 -8 17 -9 -11 -9 -18 -1
-33 3 -33 8 0 5 -10 7 -22 4 -23 -4 -23 -4 -3 12 20 17 20 17 -4 10 -16 -5
-21 -4 -17 4 11 17 56 13 63 -5z m110 -90 c14 -22 13 -22 -52 -20 -62 1 -84
11 -85 39 0 4 28 7 61 5 50 -2 64 -7 76 -24z m53 -74 l22 -30 -67 3 c-107 6
-134 57 -30 57 48 0 56 -3 75 -30z m54 -69 c17 -18 15 -19 -44 -26 -62 -7 -90
2 -90 31 0 23 112 19 134 -5z m62 -72 l29 -31 -63 4 c-36 3 -67 10 -71 17 -5
7 -11 12 -15 12 -14 -2 -6 14 11 20 42 17 79 9 109 -22z m72 -68 c12 -11 22
-22 22 -24 0 -3 -29 -4 -65 -3 -102 5 -131 46 -32 46 36 -1 59 -7 75 -19z m60
-57 c40 -8 23 -21 -35 -27 -52 -4 -61 -2 -83 19 l-25 25 60 -6 c33 -4 70 -8
83 -11z m83 -61 c13 -15 11 -16 -25 -10 -21 3 -47 2 -56 -3 -13 -7 -24 -4 -42
10 l-23 19 66 1 c50 0 70 -4 80 -17z m22 -34 c40 -1 41 -1 11 -8 -17 -4 -36
-11 -42 -15 -6 -3 -22 -1 -37 6 -18 8 -22 14 -13 20 7 4 19 6 26 3 8 -3 32 -5
55 -6z m97 -39 c12 -8 10 -10 -10 -10 -15 0 -31 -5 -36 -10 -7 -7 -21 -6 -44
2 -30 10 -31 12 -14 19 27 11 86 10 104 -1z m35 -40 c18 -7 19 -8 2 -15 -22
-9 -70 3 -62 15 7 12 32 12 60 0z m75 -40 c0 -13 -20 -13 -40 0 -12 8 -9 10
13 10 15 0 27 -4 27 -10z m94 -21 c-7 -12 -51 -12 -59 0 -3 5 5 11 17 13 29 5
49 -2 42 -13z m49 -16 c-7 -2 -21 -2 -30 0 -10 3 -4 5 12 5 17 0 24 -2 18 -5z"/>
<path d="M1710 3973 c0 -5 5 -15 10 -23 8 -12 10 -11 10 8 0 12 -4 22 -10 22
-5 0 -10 -3 -10 -7z"/>
<path d="M1639 3883 c-8 -1 -44 -5 -82 -8 -39 -4 -65 -11 -61 -16 3 -5 14 -7
25 -4 10 4 29 3 40 0 37 -12 0 -25 -70 -25 -35 0 -94 -5 -130 -12 -59 -10 -63
-12 -37 -19 16 -5 33 -6 37 -3 4 2 11 -1 15 -7 5 -8 3 -9 -7 -4 -12 7 -12 5
-1 -6 11 -12 14 -12 22 1 8 12 10 12 10 1 0 -8 7 -11 20 -8 11 3 20 2 20 -3 0
-15 57 -31 117 -33 57 -1 61 -3 51 -20 -17 -33 -4 -42 64 -42 46 1 65 -3 65
-12 0 -7 -6 -13 -14 -13 -7 0 -13 -4 -13 -8 0 -5 -10 -13 -22 -19 -15 -7 34
-13 178 -22 254 -16 237 -14 242 -30 3 -8 0 -11 -7 -7 -13 8 -14 -20 -4 -153
3 -51 9 -88 12 -83 3 6 42 23 86 40 122 46 120 46 134 16 13 -30 3 -44 -31
-44 -10 0 -18 -4 -18 -9 0 -5 -15 -12 -32 -15 -46 -9 -75 -33 -60 -48 8 -8 30
-2 87 25 92 45 112 46 121 11 5 -21 2 -31 -17 -45 -13 -10 -34 -19 -46 -19
-12 0 -25 -4 -28 -10 -3 -5 -15 -10 -26 -10 -12 0 -28 -14 -40 -35 -11 -19
-29 -37 -40 -40 -10 -4 -19 -11 -19 -17 0 -6 7 -7 18 -3 9 4 28 10 42 13 27 5
65 28 90 52 8 8 37 26 63 40 41 22 49 23 57 10 14 -22 12 -49 -5 -66 -8 -9
-15 -13 -15 -9 0 3 -9 1 -19 -4 -10 -6 -40 -13 -66 -15 -51 -5 -111 -40 -119
-68 -2 -10 -11 -18 -20 -18 -9 0 -16 -4 -16 -9 0 -5 -7 -17 -16 -25 -12 -12
-12 -16 -2 -17 7 0 4 -4 -7 -8 -23 -9 153 -19 470 -26 116 -3 218 -8 228 -11
22 -7 22 3 -7 78 -67 180 -174 346 -307 479 -84 84 -217 190 -237 189 -4 0 2
-7 12 -15 18 -14 17 -16 -25 -35 -24 -11 -55 -20 -69 -20 l-25 -1 23 -9 c16
-7 39 -4 82 11 58 20 60 20 84 2 14 -10 26 -21 26 -24 0 -8 -97 -38 -130 -41
-15 -1 -50 16 -90 43 l-66 45 69 11 c38 6 76 18 84 26 14 13 13 16 -7 27 -15
8 -20 8 -16 1 4 -6 -5 -16 -21 -22 -40 -15 -123 -27 -123 -18 0 5 -6 6 -14 3
-13 -5 -76 21 -76 31 0 4 31 -1 61 -10 11 -4 25 -2 32 3 7 5 29 15 50 21 20 7
37 16 37 20 0 18 -14 19 -42 5 -16 -9 -36 -13 -44 -10 -8 3 -13 2 -10 -3 18
-28 -113 -19 -189 13 -76 31 -80 49 -19 72 42 16 44 18 24 26 -14 5 -28 4 -36
-3 -10 -8 -14 -8 -14 0 0 6 -4 11 -10 11 -5 0 -10 -7 -10 -15 0 -10 -10 -15
-31 -15 -17 0 -28 4 -24 10 3 6 15 10 26 10 10 0 19 5 19 10 0 7 -16 9 -40 6
-22 -3 -38 -1 -35 3 4 7 -91 10 -136 4z m121 -7 c0 -3 -4 -8 -10 -11 -5 -3
-10 -1 -10 4 0 6 5 11 10 11 6 0 10 -2 10 -4z m-96 -32 c25 -9 19 -24 -9 -24
-24 0 -32 10 -18 23 8 8 8 8 27 1z m144 -16 c25 -1 42 -6 42 -13 0 -20 -10
-23 -48 -15 -20 4 -54 11 -74 14 -21 4 -38 11 -38 16 0 6 17 7 38 4 20 -3 56
-6 80 -6z m660 -240 c20 -20 14 -26 -43 -47 -71 -27 -96 -26 -123 2 l-21 22
43 2 c23 1 58 8 77 16 43 19 52 20 67 5z m67 -68 c10 -11 16 -21 14 -23 -4 -2
-104 -34 -136 -43 -14 -3 -63 33 -63 47 0 6 8 8 18 5 9 -2 42 4 72 14 72 23
74 23 95 0z m-350 -1 c10 -14 4 -18 -38 -23 -43 -5 -49 8 -9 22 36 14 40 14
47 1z m73 -76 c3 -23 -17 -31 -111 -48 -36 -6 -38 -5 -35 16 2 18 15 27 58 40
68 21 84 20 88 -8z m337 7 c10 -11 16 -21 14 -23 -2 -2 -32 -12 -66 -23 -35
-10 -63 -22 -63 -26 0 -12 15 -10 87 9 l65 18 19 -24 c10 -13 19 -26 19 -30 0
-4 -31 -15 -69 -24 -58 -15 -73 -16 -90 -5 -12 7 -21 15 -21 19 0 3 -18 25
-39 49 l-40 44 62 17 c83 23 101 23 122 -1z m111 -155 c9 -14 15 -27 13 -29
-2 -1 -35 -12 -74 -23 l-70 -21 -22 26 c-22 25 -32 59 -15 48 4 -2 34 2 67 9
83 18 83 18 101 -10z m41 -72 c4 -10 11 -21 16 -24 4 -3 -28 -15 -73 -27 l-81
-20 -16 24 c-9 14 -14 26 -12 28 3 3 127 32 152 35 4 1 11 -7 14 -16z m-242
-74 c11 -17 -34 -57 -71 -61 -19 -2 -34 -1 -34 3 0 8 80 68 92 69 4 0 10 -5
13 -11z m283 -17 c2 -15 -2 -22 -13 -22 -10 0 -39 -8 -64 -17 -56 -20 -81 -13
-81 22 0 14 1 25 3 25 64 6 113 13 117 17 11 10 35 -5 38 -25z m27 -59 c0 -6
3 -15 8 -19 4 -4 7 -11 7 -16 0 -4 -3 -7 -7 -6 -5 0 -15 -2 -23 -5 -32 -13
-124 -37 -127 -33 -2 2 -5 16 -6 32 -2 28 1 30 63 46 69 18 85 18 85 1z m-265
-13 c0 -5 -13 -11 -30 -15 -16 -4 -30 -11 -30 -16 0 -6 -5 -7 -11 -4 -7 5 -4
13 8 25 31 28 63 33 63 10z m294 -68 c3 -5 -14 -9 -37 -9 -35 -1 -38 0 -17 7
34 11 48 11 54 2z"/>
<path d="M2760 3066 c0 -2 9 -6 20 -9 11 -3 18 -1 14 4 -5 9 -34 13 -34 5z"/>
<path d="M2000 3830 c0 -5 9 -10 21 -10 11 0 17 5 14 10 -3 6 -13 10 -21 10
-8 0 -14 -4 -14 -10z"/>
<path d="M1940 3826 c0 -2 7 -6 15 -10 8 -3 15 -1 15 4 0 6 -7 10 -15 10 -8 0
-15 -2 -15 -4z"/>
<path d="M2066 3805 c-10 -8 -23 -12 -27 -9 -5 3 -9 0 -9 -7 0 -6 -8 -9 -19
-6 -10 2 -25 1 -32 -4 -10 -6 -8 -9 8 -9 12 0 23 -6 26 -12 4 -10 8 -10 23 0
11 6 34 20 52 29 22 12 28 19 20 25 -17 10 -20 10 -42 -7z"/>
<path d="M2220 3756 c0 -2 7 -7 16 -10 8 -3 12 -2 9 4 -6 10 -25 14 -25 6z"/>
<path d="M1645 3611 c-3 -5 -10 -45 -15 -88 -19 -146 -72 -427 -96 -505 -5
-16 3 -18 71 -18 75 0 77 1 72 23 -9 34 -30 519 -25 560 4 39 3 43 -7 28z"/>
<path d="M1065 3499 c-22 -5 -46 -17 -52 -26 -7 -9 -13 -12 -13 -5 0 18 -14
15 -26 -6 -10 -15 -7 -17 35 -16 25 0 62 5 81 9 44 10 110 12 110 3 0 -3 12
-11 28 -16 18 -7 21 -11 9 -11 -10 -1 -40 -22 -67 -47 -41 -38 -50 -52 -48
-76 2 -28 18 -52 18 -27 0 9 3 9 14 0 10 -8 16 -9 21 -1 3 5 1 10 -4 10 -6 0
-11 9 -11 20 0 11 5 20 11 20 6 0 25 15 43 33 53 52 62 57 75 44 6 -6 11 -7
11 -1 0 5 -15 18 -34 28 -19 10 -37 27 -39 38 -3 11 -10 17 -15 14 -5 -3 -18
1 -28 9 -21 16 -60 17 -119 4z"/>
<path d="M1784 3338 c10 -222 14 -248 40 -248 20 1 20 2 4 14 -22 16 -24 66
-4 66 9 0 12 7 9 21 -3 12 -11 18 -19 15 -10 -4 -14 3 -14 23 0 33 29 51 42
26 5 -8 14 -13 19 -9 5 3 16 0 24 -6 11 -9 15 -7 20 12 3 12 4 34 3 48 -2 17
1 24 10 22 8 -1 11 2 7 8 -3 6 -11 8 -16 5 -5 -4 -9 1 -9 10 0 11 5 15 15 11
16 -6 19 3 9 28 -3 9 -12 16 -20 16 -10 0 -14 -14 -14 -49 0 -46 -1 -48 -25
-43 -15 2 -25 0 -25 -7 0 -6 8 -11 18 -11 9 0 24 -5 32 -10 11 -8 7 -9 -15 -4
-16 4 -35 11 -42 16 -7 6 -15 3 -21 -8 -13 -23 -24 104 -11 128 11 20 2 68
-13 68 -7 0 -9 -47 -4 -142z"/>
<path d="M2776 3375 c-9 -26 -7 -32 5 -12 6 10 9 21 6 23 -2 3 -7 -2 -11 -11z"/>
<path d="M1304 3365 c3 -8 9 -22 12 -30 4 -11 0 -15 -15 -15 -14 0 -21 -6 -21
-20 0 -12 -9 -33 -19 -48 -15 -21 -21 -52 -27 -134 l-6 -108 34 0 c19 0 77 -2
129 -5 63 -4 87 -2 74 4 -11 5 -33 10 -50 10 -38 2 -60 15 -50 32 5 7 9 47 10
90 1 43 7 85 14 93 8 10 9 16 1 21 -16 10 -12 43 8 54 14 8 10 10 -20 11 -31
0 -40 5 -53 30 -16 31 -32 42 -21 15z"/>
<path d="M0 3310 c0 -5 7 -10 15 -10 8 0 15 5 15 10 0 6 -7 10 -15 10 -8 0
-15 -4 -15 -10z"/>
<path d="M927 3256 c-72 -30 -84 -40 -107 -90 -26 -58 -48 -136 -41 -140 3 -2
102 -7 219 -11 l212 -8 -5 29 c-2 16 -7 55 -10 88 -3 36 -13 68 -25 84 -11 13
-20 30 -20 37 0 7 -14 18 -31 24 -52 18 -129 13 -192 -13z"/>
<path d="M1931 3261 c-16 -10 -7 -45 11 -39 6 2 12 14 13 26 2 24 -3 26 -24
13z"/>
<path d="M2112 3220 c0 -19 2 -27 5 -17 2 9 2 25 0 35 -3 9 -5 1 -5 -18z"/>
<path d="M1850 3191 c0 -11 5 -23 10 -26 6 -3 10 3 10 14 0 11 -4 23 -10 26
-5 3 -10 -3 -10 -14z"/>
<path d="M1880 3185 c0 -14 5 -25 10 -25 6 0 10 11 10 25 0 14 -4 25 -10 25
-5 0 -10 -11 -10 -25z"/>
<path d="M1917 3203 c-17 -16 -6 -40 18 -40 17 0 25 4 23 14 -2 8 -7 13 -12
13 -5 -1 -12 3 -16 9 -3 6 -9 8 -13 4z"/>
<path d="M1888 3093 c17 -2 47 -2 65 0 17 2 3 4 -33 4 -36 0 -50 -2 -32 -4z"/>
<path d="M551 3004 c0 -11 3 -14 6 -6 3 7 2 16 -1 19 -3 4 -6 -2 -5 -13z"/>
<path d="M572 2948 c-14 -45 -25 -126 -15 -111 6 8 21 9 58 1 31 -6 120 -7
230 -2 317 12 364 11 645 -13 151 -13 361 -26 465 -28 271 -6 283 -8 333 -55
55 -53 122 -190 92 -190 -7 0 -8 -5 -3 -12 4 -7 8 -17 8 -23 0 -5 12 -9 25 -8
22 2 23 2 7 -8 -10 -6 -24 -8 -32 -5 -8 3 -16 2 -18 -2 -2 -4 -2 -1 0 7 2 9
-3 12 -18 8 -17 -5 -20 -2 -16 14 3 12 0 19 -9 19 -8 0 -14 -4 -14 -9 0 -5 -9
-7 -19 -4 -13 3 -21 -1 -24 -14 -4 -16 -5 -16 -6 2 -1 11 -5 27 -11 35 -7 12
-12 11 -31 -5 -22 -20 -22 -20 -17 1 3 12 2 27 -2 34 -12 19 -32 1 -25 -23 5
-16 4 -18 -3 -8 -5 7 -12 9 -14 5 -3 -5 -3 -3 -2 4 2 6 -1 12 -7 12 -6 0 -13
-8 -16 -18 -2 -10 -18 -23 -35 -30 -24 -9 -29 -16 -25 -32 7 -26 0 -25 -24 3
-15 18 -20 19 -28 8 -6 -10 -4 -22 6 -38 19 -29 12 -39 -16 -21 -17 10 -23 10
-33 0 -11 -11 -10 -16 5 -27 12 -9 15 -15 7 -20 -6 -4 -9 -13 -6 -20 7 -19
-44 -3 -82 25 -25 19 -40 22 -84 18 -78 -7 -125 -41 -193 -142 -32 -47 -71
-100 -87 -118 l-29 -33 100 -3 101 -3 0 -37 c0 -20 4 -43 8 -50 12 -18 312
-28 323 -10 7 10 9 10 9 1 0 -7 7 -13 16 -13 9 0 12 -5 8 -11 -5 -8 1 -10 20
-7 26 5 27 4 12 -11 -15 -15 -80 -16 -711 -13 -578 3 -695 2 -695 -10 0 -7 18
-42 41 -77 31 -50 44 -62 59 -58 11 3 20 1 20 -4 0 -6 7 -6 18 -1 20 11 275
-18 386 -43 219 -49 296 -93 317 -179 13 -53 16 -249 4 -285 -3 -12 -4 -21 -2
-21 2 0 28 -5 57 -10 66 -12 185 -15 223 -5 17 4 27 3 27 -3 0 -14 158 -6 200
10 130 48 210 74 210 67 0 -5 -4 -9 -10 -9 -5 0 -10 -13 -10 -30 0 -16 -5 -30
-12 -30 -6 0 -9 -3 -6 -6 3 -3 24 4 46 15 38 19 40 19 35 2 -3 -12 3 -24 17
-34 21 -14 21 -14 0 -20 -23 -6 -28 -37 -5 -37 8 0 15 5 15 10 0 21 16 9 18
-14 1 -15 -8 -34 -23 -48 -25 -24 -32 -52 -15 -63 5 -3 6 -13 3 -22 -4 -9 1
-21 12 -29 17 -13 17 -14 2 -14 -20 0 -22 -21 -5 -38 9 -9 9 -12 0 -12 -7 0
-12 -7 -12 -15 0 -8 7 -15 16 -15 14 0 14 -3 4 -15 -9 -11 -9 -15 -1 -15 6 0
16 10 21 23 6 15 9 17 9 5 1 -11 7 -15 19 -11 18 4 18 6 3 37 -12 24 -21 31
-36 28 -16 -4 -18 -2 -8 8 10 10 18 11 37 2 34 -15 55 8 29 33 -16 17 -43 61
-43 72 0 2 8 2 19 -2 15 -4 18 -1 15 21 -1 15 -10 31 -18 36 -24 13 -19 30 6
23 17 -6 20 -4 15 9 -4 11 -1 16 10 16 14 0 14 2 -2 20 -19 20 -41 28 -30 10
3 -5 1 -10 -4 -10 -6 0 -10 11 -9 25 2 16 8 25 19 25 18 0 20 15 6 38 -5 7
-12 10 -17 7 -4 -3 -10 2 -14 10 -7 19 4 19 31 0 12 -8 24 -11 27 -6 3 5 -1
11 -9 15 -8 3 -15 12 -15 19 0 8 -7 20 -15 27 -8 7 -15 16 -15 20 0 5 14 -5
30 -22 21 -21 37 -28 51 -25 11 3 22 0 25 -7 2 -6 17 -11 32 -10 23 1 27 5 25
30 -2 26 -20 48 -45 56 -5 2 -5 13 0 28 l9 24 7 -28 c7 -27 8 -28 26 -11 18
16 20 16 26 1 3 -9 13 -16 21 -16 13 0 13 -3 3 -15 -16 -20 -10 -26 18 -18 21
5 31 23 14 23 -5 0 -9 7 -9 15 0 8 6 15 14 15 7 0 13 5 13 11 0 6 -7 9 -15 5
-18 -7 -20 5 -3 22 10 10 10 17 -1 35 -13 21 -13 22 6 5 41 -37 45 -14 7 32
l-27 31 27 -7 c21 -5 25 -3 20 10 -3 9 -10 14 -14 11 -4 -3 -11 2 -14 11 -4
12 -1 14 14 9 14 -4 20 -2 20 8 0 21 -43 30 -56 12 -6 -8 -15 -15 -19 -15 -5
0 0 9 10 20 11 12 28 20 39 18 15 -2 32 11 58 46 46 60 112 169 132 216 l14
35 -86 -3 c-52 -2 -90 -8 -94 -15 -6 -9 -8 -8 -8 1 0 7 -13 18 -29 23 -19 7
-31 19 -34 35 -3 18 -1 22 6 15 6 -6 29 -11 50 -11 30 0 40 4 44 20 3 11 9 20
12 20 4 0 8 6 8 13 0 6 9 41 20 77 11 36 26 103 32 150 20 139 16 132 59 128
26 -2 36 -7 34 -17 -2 -8 2 -17 7 -20 6 -4 -10 -13 -34 -20 -52 -15 -50 -36 2
-28 35 6 35 6 14 -12 -24 -21 -28 -43 -6 -35 8 4 15 2 15 -4 0 -5 -16 -13 -35
-16 -63 -12 -49 -33 19 -26 11 1 15 -3 12 -9 -4 -6 -14 -11 -22 -11 -8 0 -13
-4 -10 -9 3 -5 16 -7 29 -5 12 3 -4 -5 -35 -18 -32 -12 -58 -26 -58 -31 0 -4
26 -5 58 -1 31 3 54 4 51 0 -4 -5 -34 -12 -60 -15 -4 -1 -10 -8 -13 -17 -5
-14 -4 -15 9 -4 11 9 15 10 15 0 0 -8 10 -9 33 -5 17 4 29 5 26 1 -6 -6 -85
-25 -123 -29 -11 -1 -21 -8 -24 -15 -3 -11 9 -13 55 -10 32 3 64 8 71 12 8 5
9 -1 1 -23 -7 -21 -18 -31 -37 -34 -22 -3 -20 -4 9 -6 33 -1 38 3 52 37 58
131 91 350 84 547 -5 150 -32 329 -47 320 -5 -3 -156 -1 -337 5 -180 5 -508
14 -728 20 -844 20 -1207 31 -1227 36 -11 3 -19 -5 -26 -28z m2202 -85 c8 -16
17 -27 20 -25 3 1 16 2 29 1 12 -1 2 -5 -22 -10 -54 -10 -78 -29 -38 -29 45 0
52 -71 8 -83 -17 -4 -22 0 -26 21 -3 15 -11 53 -19 84 -14 58 -11 65 21 67 7
1 19 -11 27 -26z m62 18 c-7 -11 -56 -21 -56 -10 0 6 13 11 53 18 5 0 6 -3 3
-8z m-9 -27 c-3 -3 -12 -4 -19 -1 -8 3 -5 6 6 6 11 1 17 -2 13 -5z m6 -61 c-7
-2 -19 -2 -25 0 -7 3 -2 5 12 5 14 0 19 -2 13 -5z m14 -49 c-3 -3 -12 -4 -19
-1 -8 3 -5 6 6 6 11 1 17 -2 13 -5z m-45 -39 c21 -8 10 -66 -13 -72 -28 -8
-23 -23 6 -23 20 0 25 -5 25 -25 0 -17 6 -25 18 -26 14 0 13 -2 -4 -9 -12 -4
-32 -10 -45 -12 -20 -2 -24 2 -25 27 -1 17 -5 53 -9 82 -6 45 -5 52 11 56 11
3 20 5 21 6 1 0 8 -1 15 -4z m-212 -180 c-7 -8 -17 -15 -22 -15 -6 0 -5 7 2
15 7 8 17 15 22 15 6 0 5 -7 -2 -15z m-450 -15 c0 -5 -2 -10 -4 -10 -3 0 -8 5
-11 10 -3 6 -1 10 4 10 6 0 11 -4 11 -10z m673 1 c39 11 56 12 41 1 -17 -11
-24 -40 -11 -46 7 -2 3 -5 -8 -5 -11 -1 -32 -8 -47 -15 l-28 -15 0 47 c0 33 3
43 11 35 7 -7 21 -8 42 -2z m-698 -31 c3 -5 1 -10 -4 -10 -6 0 -11 5 -11 10 0
6 2 10 4 10 3 0 8 -4 11 -10z m140 0 c3 -5 1 -10 -4 -10 -6 0 -11 5 -11 10 0
6 2 10 4 10 3 0 8 -4 11 -10z m197 -34 c7 -13 7 -16 -1 -12 -6 4 -11 2 -11 -3
0 -6 -8 -11 -17 -11 -17 1 -17 1 0 11 13 8 15 15 7 28 -5 10 -6 21 -2 25 3 4
8 1 11 -6 2 -7 8 -21 13 -32z m171 19 c-3 -9 -8 -14 -10 -11 -3 3 -2 9 2 15 9
16 15 13 8 -4z m-238 -31 c-1 -15 3 -28 11 -31 8 -3 14 -9 14 -15 0 -5 -4 -7
-9 -4 -5 3 -12 -2 -15 -11 -5 -12 -9 -14 -18 -5 -7 7 -23 12 -37 12 -19 0 -22
3 -12 9 7 5 21 6 31 4 11 -3 18 0 17 9 -1 34 4 58 12 58 5 0 8 -12 6 -26z
m-265 6 c0 -5 -2 -10 -4 -10 -3 0 -8 5 -11 10 -3 6 -1 10 4 10 6 0 11 -4 11
-10z m50 -10 c0 -5 -2 -10 -4 -10 -3 0 -8 5 -11 10 -3 6 -1 10 4 10 6 0 11 -4
11 -10z m120 6 c0 -3 -4 -8 -10 -11 -5 -3 -10 -1 -10 4 0 6 5 11 10 11 6 0 10
-2 10 -4z m-80 -10 c0 -3 -4 -8 -10 -11 -5 -3 -10 -1 -10 4 0 6 5 11 10 11 6
0 10 -2 10 -4z m390 -5 c0 -17 -12 -41 -21 -41 -5 0 -9 11 -9 25 0 16 6 25 15
25 8 0 15 -4 15 -9z m-105 -21 c3 -5 1 -10 -4 -10 -6 0 -11 5 -11 10 0 6 2 10
4 10 3 0 8 -4 11 -10z m-360 -20 c-3 -5 -10 -10 -16 -10 -5 0 -9 5 -9 10 0 6
7 10 16 10 8 0 12 -4 9 -10z m485 -23 c0 -7 -11 -23 -25 -35 -29 -26 -31 -21
-8 19 18 31 33 38 33 16z m-305 -7 c-3 -5 -10 -10 -16 -10 -5 0 -9 5 -9 10 0
6 7 10 16 10 8 0 12 -4 9 -10z m179 -23 c7 -6 6 -7 -4 -4 -8 2 -16 12 -17 23
-2 13 -1 15 4 4 3 -8 11 -19 17 -23z m26 29 c0 -3 -4 -8 -10 -11 -5 -3 -10 -1
-10 4 0 6 5 11 10 11 6 0 10 -2 10 -4z m-155 -25 c3 -5 1 -12 -5 -16 -5 -3
-10 1 -10 9 0 18 6 21 15 7z m-185 -11 c0 -5 -4 -10 -10 -10 -5 0 -10 5 -10
10 0 6 5 10 10 10 6 0 10 -4 10 -10z m285 -18 c-8 -8 -25 10 -19 20 4 6 9 5
15 -3 4 -7 6 -15 4 -17z m-332 -17 c-3 -9 -8 -14 -10 -11 -3 3 -2 9 2 15 9 16
15 13 8 -4z m197 5 c0 -5 -4 -10 -10 -10 -5 0 -10 5 -10 10 0 6 5 10 10 10 6
0 10 -4 10 -10z m190 6 c0 -3 -4 -8 -10 -11 -5 -3 -10 -1 -10 4 0 6 5 11 10
11 6 0 10 -2 10 -4z m-53 -28 c-3 -8 -6 -5 -6 6 -1 11 2 17 5 13 3 -3 4 -12 1
-19z m118 12 c3 -5 1 -10 -4 -10 -6 0 -11 5 -11 10 0 6 2 10 4 10 3 0 8 -4 11
-10z m-25 -10 c0 -5 -4 -10 -10 -10 -5 0 -10 5 -10 10 0 6 5 10 10 10 6 0 10
-4 10 -10z m70 -8 c0 -4 -9 -14 -19 -22 -11 -7 -17 -18 -14 -23 3 -6 1 -7 -5
-3 -5 3 -12 0 -15 -6 -2 -7 -8 -10 -12 -6 -9 9 36 67 53 67 6 1 12 -3 12 -7z
m-420 -12 c0 -5 -2 -10 -4 -10 -3 0 -8 5 -11 10 -3 6 -1 10 4 10 6 0 11 -4 11
-10z m170 0 c0 -5 -2 -10 -4 -10 -3 0 -8 5 -11 10 -3 6 -1 10 4 10 6 0 11 -4
11 -10z m-213 -42 c-3 -8 -6 -5 -6 6 -1 11 2 17 5 13 3 -3 4 -12 1 -19z m180
-20 c-3 -8 -6 -5 -6 6 -1 11 2 17 5 13 3 -3 4 -12 1 -19z m83 18 c0 -3 -4 -8
-10 -11 -5 -3 -10 -1 -10 4 0 6 5 11 10 11 6 0 10 -2 10 -4z m-202 -24 c2 -7
-2 -10 -12 -6 -9 3 -16 11 -16 16 0 13 23 5 28 -10z m-78 -2 c8 -5 11 -12 8
-16 -4 -3 -14 1 -23 10 -18 17 -9 21 15 6z m416 -17 c14 2 27 0 31 -6 4 -6 1
-7 -6 -3 -8 5 -12 3 -10 -5 4 -31 -2 -60 -10 -55 -5 3 -7 16 -4 27 5 19 3 21
-20 15 -29 -7 -34 4 -20 41 7 17 8 17 11 0 3 -14 10 -18 28 -14z m-246 -9 c0
-8 -5 -12 -10 -9 -6 4 -8 11 -5 16 9 14 15 11 15 -7z m510 -19 c0 -7 -30 -13
-34 -7 -3 4 4 9 15 9 10 1 19 0 19 -2z m-605 -15 c3 -5 1 -10 -4 -10 -6 0 -11
5 -11 10 0 6 2 10 4 10 3 0 8 -4 11 -10z m-228 -14 c-3 -7 0 -19 6 -25 6 -6 8
-13 5 -17 -9 -8 -30 35 -23 46 9 15 18 12 12 -4z m158 4 c3 -5 -1 -10 -9 -10
-9 0 -16 5 -16 10 0 6 4 10 9 10 6 0 13 -4 16 -10z m169 -5 c-4 -8 -16 -15
-27 -15 -20 0 -20 0 -1 15 25 19 35 19 28 0z m92 -4 c-17 -18 -17 -20 1 -29
10 -6 15 -14 11 -17 -11 -11 -38 21 -38 44 0 15 6 21 22 21 20 0 20 -1 4 -19z
m194 3 c0 -8 -5 -12 -10 -9 -6 4 -8 11 -5 16 9 14 15 11 15 -7z m-56 -20 c9
-24 4 -24 -18 -3 -16 16 -17 19 -4 19 9 0 19 -7 22 -16z m-511 -25 c-4 -15 -8
-17 -13 -8 -10 15 -1 41 10 34 5 -3 6 -14 3 -26z m482 1 c-3 -5 -11 -10 -16
-10 -6 0 -7 5 -4 10 3 6 11 10 16 10 6 0 7 -4 4 -10z m-170 -10 c-3 -5 -10
-10 -16 -10 -5 0 -9 5 -9 10 0 6 7 10 16 10 8 0 12 -4 9 -10z m255 -6 c0 -8
-5 -12 -10 -9 -6 4 -8 11 -5 16 9 14 15 11 15 -7z m-460 -14 c0 -5 -4 -10 -10
-10 -5 0 -10 5 -10 10 0 6 5 10 10 10 6 0 10 -4 10 -10z m85 0 c3 -5 1 -10 -4
-10 -6 0 -11 5 -11 10 0 6 2 10 4 10 3 0 8 -4 11 -10z m36 -20 c44 0 68 -4 64
-10 -3 -5 -15 -10 -26 -10 -11 0 -22 -7 -25 -15 -9 -22 -57 -19 -72 5 -7 11
-19 20 -27 20 -8 0 -15 5 -15 11 0 6 7 8 16 5 9 -3 47 -6 85 -6z m158 -6 c2
-2 -2 -10 -9 -19 -14 -17 -50 -21 -50 -5 0 6 5 10 11 10 8 0 7 6 -2 17 -13 15
-11 16 16 9 16 -4 32 -9 34 -12z m131 -24 c0 -16 -6 -20 -32 -19 l-33 1 28 11
c15 6 27 14 27 19 0 4 2 8 5 8 3 0 5 -9 5 -20z m-370 -2 c0 -6 -3 -8 -7 -5 -3
4 -12 2 -20 -5 -15 -12 -28 -5 -18 11 8 15 45 14 45 -1z m296 -9 c3 -5 -6 -9
-20 -9 -16 0 -26 6 -26 14 0 15 36 11 46 -5z m-126 1 c0 -5 -4 -10 -10 -10 -5
0 -10 5 -10 10 0 6 5 10 10 10 6 0 10 -4 10 -10z m70 -10 c0 -5 -4 -10 -10
-10 -5 0 -10 5 -10 10 0 6 5 10 10 10 6 0 10 -4 10 -10z m-219 -23 c20 -15 34
-57 20 -57 -6 0 -11 9 -11 19 0 23 -22 40 -28 23 -2 -7 -8 -10 -12 -7 -10 6
-2 35 9 35 3 0 13 -6 22 -13z m529 3 c-8 -5 -19 -10 -25 -10 -5 0 -3 5 5 10 8
5 20 10 25 10 6 0 3 -5 -5 -10z m-45 -10 c-3 -5 -17 -10 -31 -10 -23 0 -33
-14 -16 -24 4 -2 29 0 56 6 54 11 62 8 47 -20 -7 -13 -26 -23 -53 -27 -24 -4
-50 -11 -59 -15 -8 -5 -22 -4 -30 1 -12 8 -11 11 4 23 11 9 15 20 11 31 -5 12
-1 23 11 31 22 16 69 19 60 4z m-345 -25 c-7 -8 -17 -15 -22 -15 -6 0 -5 7 2
15 7 8 17 15 22 15 6 0 5 -7 -2 -15z m70 -36 c0 -5 -11 -3 -25 3 -14 6 -25 15
-25 19 0 5 11 3 25 -3 14 -6 25 -15 25 -19z m160 15 c0 -8 -4 -12 -10 -9 -5 3
-10 10 -10 16 0 5 5 9 10 9 6 0 10 -7 10 -16z m-410 -8 c0 -11 -19 -15 -25 -6
-3 5 1 10 9 10 9 0 16 -2 16 -4z m60 -41 c0 -21 -5 -19 -25 11 -16 25 -16 25
4 14 12 -6 21 -17 21 -25z m119 3 c-9 -16 -14 -19 -17 -9 -2 7 2 17 9 22 20
13 21 11 8 -13z m238 15 c-4 -3 -1 -13 6 -22 11 -14 10 -14 -5 -2 -14 11 -18
11 -18 1 0 -8 -3 -11 -6 -7 -10 9 4 37 17 37 7 0 9 -3 6 -7z m-387 -24 c0 -5
-4 -9 -10 -9 -5 0 -10 7 -10 16 0 8 5 12 10 9 6 -3 10 -10 10 -16z m240 11 c0
-5 -7 -10 -15 -10 -8 0 -15 5 -15 10 0 6 7 10 15 10 8 0 15 -4 15 -10z m60
-10 c0 -5 -4 -10 -10 -10 -5 0 -10 5 -10 10 0 6 5 10 10 10 6 0 10 -4 10 -10z
m-100 -21 c0 -5 -4 -9 -10 -9 -5 0 -10 7 -10 16 0 8 5 12 10 9 6 -3 10 -10 10
-16z m309 0 c-5 -10 -18 -23 -29 -29 -18 -10 -70 -14 -70 -6 0 2 -3 11 -6 19
-4 12 0 14 15 10 15 -4 20 -2 16 8 -4 11 6 14 40 15 40 1 43 0 34 -17z m-459
-19 c0 -5 -4 -10 -10 -10 -5 0 -10 5 -10 10 0 6 5 10 10 10 6 0 10 -4 10 -10z
m110 -20 c0 -5 -4 -10 -10 -10 -5 0 -10 5 -10 10 0 6 5 10 10 10 6 0 10 -4 10
-10z m70 0 c0 -5 -2 -10 -4 -10 -3 0 -8 5 -11 10 -3 6 -1 10 4 10 6 0 11 -4
11 -10z m157 -19 c-6 -17 -15 -27 -19 -24 -5 2 -4 11 3 19 9 11 9 14 0 14 -7
0 -9 5 -6 10 3 6 12 10 20 10 11 0 11 -6 2 -29z m-462 13 c12 -5 13 -9 5 -14
-7 -4 -9 -13 -5 -20 4 -7 9 -30 11 -53 1 -22 8 -43 14 -47 8 -5 6 -11 -5 -20
-17 -15 -20 -40 -4 -40 8 0 8 -4 2 -12 -15 -20 8 -53 40 -56 23 -2 27 1 27 23
0 15 -4 24 -10 20 -5 -3 -10 1 -10 11 0 14 2 15 17 3 15 -12 16 -12 11 2 -4 9
-2 21 4 27 7 7 2 10 -16 8 -16 -2 -25 1 -23 8 2 6 11 10 20 10 9 -1 14 2 11 7
-3 5 1 9 9 9 23 0 39 -27 32 -52 -4 -13 -6 -21 -4 -18 2 3 13 16 24 29 11 14
14 21 8 17 -9 -5 -13 0 -13 13 0 27 -13 33 -44 21 -17 -6 -26 -6 -26 0 0 6 9
10 21 10 15 0 19 5 15 15 -3 8 -1 15 4 15 6 0 10 -5 10 -12 0 -9 3 -9 11 -1 6
6 18 9 26 6 8 -3 19 0 24 8 7 12 9 12 10 -1 5 -50 4 -68 -3 -64 -5 3 -11 -8
-14 -25 -4 -17 -9 -30 -13 -29 -3 0 -21 -3 -38 -7 -26 -6 -33 -13 -33 -31 0
-26 -28 -42 -76 -46 -14 -2 -23 -7 -20 -14 3 -7 -2 -15 -10 -18 -9 -3 -12 -1
-9 4 10 16 -17 11 -37 -7 -10 -9 -32 -18 -47 -19 -16 -1 -37 -4 -47 -8 -77
-23 -138 -12 -150 28 -11 34 -8 152 5 183 12 30 67 73 92 73 8 0 19 4 25 8 17
16 123 54 133 48 5 -4 12 -2 16 4 7 12 8 12 30 4z m105 -14 c0 -5 -4 -10 -9
-10 -6 0 -13 5 -16 10 -3 6 1 10 9 10 9 0 16 -4 16 -10z m428 -25 c-14 -31
-42 -37 -57 -13 -14 23 -6 37 11 20 18 -18 31 -14 25 7 -3 14 0 17 14 14 15
-4 16 -9 7 -28z m-251 19 c-3 -3 -12 -4 -19 -1 -8 3 -5 6 6 6 11 1 17 -2 13
-5z m25 -16 c-7 -7 -12 -8 -12 -2 0 6 3 14 7 17 3 4 9 5 12 2 2 -3 -1 -11 -7
-17z m102 -3 c3 -8 16 -15 28 -15 l22 0 -21 -15 c-21 -15 -53 -11 -53 5 0 5
-3 15 -6 24 -4 10 -1 16 9 16 8 0 17 -7 21 -15z m-124 -25 c10 -10 16 -21 12
-24 -4 -2 -15 7 -25 20 -22 29 -14 31 13 4z m-240 -5 c-10 -12 -10 -15 4 -15
14 0 14 -3 4 -20 -12 -19 -13 -19 -20 7 -8 28 -3 43 14 43 7 0 6 -6 -2 -15z
m60 5 c0 -5 -10 -10 -22 -10 -19 0 -20 2 -8 10 19 13 30 13 30 0z m160 -34 c0
-6 -7 -2 -15 8 -10 13 -15 15 -15 6 0 -7 -3 -11 -6 -7 -3 3 -3 11 1 17 8 13
35 -5 35 -24z m158 -13 c-9 -10 -13 -24 -11 -30 3 -8 -4 -13 -16 -13 -12 0
-21 -6 -21 -15 0 -8 -4 -15 -10 -15 -5 0 -10 14 -10 31 0 28 -1 29 -16 15 -8
-9 -23 -16 -32 -15 -14 0 -14 2 2 8 15 6 16 10 7 16 -11 6 -11 9 0 16 8 5 23
2 37 -7 23 -15 54 -13 51 3 -3 17 2 23 18 23 14 0 15 -2 1 -17z m-858 -120
c-7 -42 -15 -36 -11 9 1 9 -3 19 -8 22 -7 5 -6 15 1 32 11 24 12 24 19 6 4
-11 4 -42 -1 -69z m670 52 c-14 -17 -30 -20 -30 -6 0 5 8 12 18 14 9 3 19 5
21 6 2 0 -2 -6 -9 -14z m183 -6 c-6 -6 -9 -19 -6 -28 4 -12 3 -13 -6 -5 -13
12 -5 44 12 44 8 0 8 -3 0 -11z m-123 -15 c0 -11 6 -14 20 -9 11 4 20 2 20 -4
0 -6 -7 -11 -16 -11 -10 0 -15 -8 -14 -22 4 -39 0 -48 -16 -48 -10 0 -14 6
-10 15 4 11 -1 15 -19 15 -22 0 -25 4 -24 38 1 37 1 37 12 10 6 -16 19 -28 28
-28 15 0 16 5 9 30 -5 18 -5 30 1 30 5 0 9 -7 9 -16z m70 -9 c10 -12 10 -15 0
-15 -7 0 -10 -7 -6 -15 3 -8 2 -15 -3 -15 -5 0 -11 14 -13 30 -5 33 3 38 22
15z m92 -63 c-3 -9 -7 -8 -16 4 -11 15 -14 15 -28 0 -13 -12 -17 -13 -21 -2
-9 22 9 39 32 31 16 -5 21 -2 22 12 1 12 3 10 8 -7 4 -14 6 -31 3 -38z m-268
-14 c-3 -4 2 -8 10 -8 16 0 23 -19 9 -21 -33 -6 -59 -5 -63 1 -3 4 -18 -1 -35
-11 l-30 -19 45 -1 45 -1 -49 -8 c-26 -5 -54 -11 -62 -14 -7 -3 -16 -1 -19 4
-3 5 18 23 48 40 29 16 62 38 73 48 18 18 40 10 28 -10z m71 -14 c13 -5 14 -8
3 -15 -19 -13 -28 -11 -28 6 0 17 2 18 25 9z m75 -13 c0 -5 -7 -11 -15 -15
-15 -5 -20 5 -8 17 9 10 23 9 23 -2z m-60 -31 c-8 -5 -17 -7 -19 -4 -3 3 1 9
9 14 8 5 17 7 19 4 3 -3 -1 -9 -9 -14z m-60 6 c0 -2 -7 -6 -15 -10 -8 -3 -15
-1 -15 4 0 6 7 10 15 10 8 0 15 -2 15 -4z m85 -26 c3 -5 1 -10 -4 -10 -6 0
-11 5 -11 10 0 6 2 10 4 10 3 0 8 -4 11 -10z m45 6 c0 -2 -8 -10 -17 -17 -16
-13 -17 -12 -4 4 13 16 21 21 21 13z m-324 -15 c-8 -13 46 -21 67 -9 10 5 30
8 45 5 l27 -3 -34 -16 c-46 -21 -135 -19 -139 4 -2 9 5 18 15 21 10 3 19 5 21
6 2 0 1 -3 -2 -8z m-46 -31 c0 -5 -11 -12 -25 -16 -14 -3 -22 -10 -19 -15 3
-5 0 -9 -5 -9 -6 0 -11 6 -11 13 0 8 -2 9 -8 1 -9 -15 -52 -28 -52 -16 0 5 24
19 53 30 63 24 67 25 67 12z m-3 -36 c-3 -3 -12 -4 -19 -1 -8 3 -5 6 6 6 11 1
17 -2 13 -5z m50 0 c-3 -3 -12 -4 -19 -1 -8 3 -5 6 6 6 11 1 17 -2 13 -5z
m-177 -13 c0 -5 8 -12 18 -14 13 -4 11 -5 -5 -6 -13 0 -23 4 -23 10 0 8 -4 8
-14 0 -9 -8 -16 -8 -20 -2 -5 8 8 15 37 20 4 0 7 -3 7 -8z m374 -15 c-10 -8
-21 -12 -24 -10 -5 6 21 24 34 24 6 0 1 -6 -10 -14z m-434 -6 c0 -5 -12 -10
-27 -10 -22 0 -25 2 -13 10 20 13 40 13 40 0z m450 -140 c0 -5 -2 -10 -4 -10
-3 0 -8 5 -11 10 -3 6 -1 10 4 10 6 0 11 -4 11 -10z m-20 -24 c0 -3 -4 -8 -10
-11 -5 -3 -10 -1 -10 4 0 6 5 11 10 11 6 0 10 -2 10 -4z m20 -150 c0 -3 -4 -8
-10 -11 -5 -3 -10 -1 -10 4 0 6 5 11 10 11 6 0 10 -2 10 -4z"/>
<path d="M2236 1607 c3 -10 9 -15 12 -12 3 3 0 11 -7 18 -10 9 -11 8 -5 -6z"/>
<path d="M1103 2560 c-21 -9 -21 -10 -6 -40 14 -28 14 -33 -1 -49 -14 -16 -16
-42 -14 -182 l3 -164 100 -3 c91 -2 101 -1 101 15 1 10 4 56 9 103 10 109 10
138 1 178 -8 33 -8 34 26 32 57 -3 60 -2 48 19 -6 12 -23 21 -42 23 -22 2 -34
9 -36 21 -3 14 4 17 42 17 25 0 46 4 46 9 0 19 -238 38 -277 21z"/>
<path d="M763 2456 c-54 -17 -100 -46 -142 -89 -28 -30 -32 -39 -26 -67 5 -23
4 -30 -4 -26 -6 4 -11 4 -11 0 0 -20 45 -164 62 -201 l20 -43 144 0 144 0 0
50 c0 37 4 50 15 50 25 0 8 315 -18 332 -19 12 -138 8 -184 -6z"/>
<path d="M1365 2410 c-4 -7 -2 -16 5 -20 9 -5 9 -9 1 -14 -6 -4 -11 -12 -11
-17 0 -6 5 -7 10 -4 6 4 10 -12 10 -39 0 -30 -4 -46 -12 -46 -9 0 -8 -3 2 -10
22 -14 33 24 26 90 -6 57 -18 80 -31 60z"/>
<path d="M2811 2394 c0 -11 3 -14 6 -6 3 7 2 16 -1 19 -3 4 -6 -2 -5 -13z"/>
<path d="M1361 2324 c0 -11 3 -14 6 -6 3 7 2 16 -1 19 -3 4 -6 -2 -5 -13z"/>
<path d="M2759 2033 c-13 -15 -12 -15 6 -6 11 6 25 8 32 6 6 -2 14 1 18 6 11
18 -41 12 -56 -6z"/>
<path d="M2755 1700 c-3 -6 1 -7 9 -4 18 7 21 14 7 14 -6 0 -13 -4 -16 -10z"/>
<path d="M2445 1327 c-18 -10 -20 -53 -3 -63 6 -4 17 1 25 11 11 16 13 16 13
3 0 -8 -7 -21 -15 -28 -19 -16 -19 -40 0 -40 13 0 13 -4 3 -22 -7 -13 -19 -27
-25 -31 -7 -4 -13 -14 -13 -22 0 -7 6 -15 13 -18 9 -3 9 -8 -2 -21 -13 -15
-12 -18 7 -23 18 -4 22 -13 22 -44 0 -32 -3 -39 -20 -39 -12 0 -20 -7 -20 -16
0 -11 5 -14 16 -10 14 5 15 4 5 -8 -9 -11 -9 -15 1 -20 10 -5 10 -7 1 -12 -22
-10 -14 -24 11 -24 28 0 43 16 24 23 -10 4 -9 6 1 6 11 1 11 4 1 16 -11 13
-10 14 4 9 12 -5 15 -2 10 10 -3 9 -10 16 -14 16 -5 0 -8 9 -7 20 1 14 6 18
19 14 21 -6 22 0 6 29 -19 34 -17 67 4 67 19 0 25 25 8 35 -5 3 -7 12 -3 20 3
9 0 22 -7 30 -15 18 -3 42 13 26 16 -16 24 -13 22 7 -2 26 -16 46 -24 34 -3
-6 -11 0 -18 14 -10 21 -9 24 8 24 17 0 18 3 9 20 -11 20 -46 24 -75 7z m21
-24 c-10 -10 -19 5 -10 18 6 11 8 11 12 0 2 -7 1 -15 -2 -18z m19 -143 c3 -5
1 -10 -4 -10 -6 0 -11 5 -11 10 0 6 2 10 4 10 3 0 8 -4 11 -10z m-5 -30 c0 -5
-5 -10 -11 -10 -5 0 -7 5 -4 10 3 6 8 10 11 10 2 0 4 -4 4 -10z"/>
<path d="M2425 1050 c-6 -9 15 -50 26 -50 3 0 6 14 7 30 1 29 -19 42 -33 20z"/>
<path d="M2345 902 c-3 -8 -3 -17 -1 -20 9 -8 36 7 36 21 0 18 -28 17 -35 -1z"/>
</g>
</svg>
